<svg width="430" height="932" viewBox="0 0 430 932" fill="none" xmlns="http://www.w3.org/2000/svg">
<rect width="430" height="932" fill="#00AB37"/>
<path d="M174.977 530.273V539H173.954L169.199 532.148H169.114V539H168.057V530.273H169.079L173.852 537.142H173.937V530.273H174.977ZM181.081 536.324V532.455H182.086V539H181.081V537.892H181.012C180.859 538.224 180.62 538.507 180.296 538.74C179.973 538.97 179.564 539.085 179.069 539.085C178.66 539.085 178.296 538.996 177.978 538.817C177.66 538.635 177.41 538.362 177.228 537.999C177.046 537.632 176.956 537.17 176.956 536.614V532.455H177.961V536.545C177.961 537.023 178.095 537.403 178.362 537.688C178.632 537.972 178.975 538.114 179.393 538.114C179.643 538.114 179.897 538.05 180.156 537.922C180.417 537.794 180.636 537.598 180.812 537.334C180.991 537.07 181.081 536.733 181.081 536.324ZM179.069 531.568L180.109 529.591H181.285L179.956 531.568H179.069ZM183.928 539V532.455H184.9V533.477H184.985C185.121 533.128 185.342 532.857 185.646 532.663C185.95 532.467 186.315 532.369 186.741 532.369C187.173 532.369 187.532 532.467 187.819 532.663C188.109 532.857 188.334 533.128 188.496 533.477H188.565C188.732 533.139 188.984 532.871 189.319 532.672C189.654 532.47 190.056 532.369 190.525 532.369C191.11 532.369 191.589 532.553 191.961 532.919C192.333 533.283 192.519 533.849 192.519 534.619V539H191.513V534.619C191.513 534.136 191.381 533.791 191.117 533.584C190.853 533.376 190.542 533.273 190.184 533.273C189.724 533.273 189.367 533.412 189.114 533.69C188.861 533.966 188.735 534.315 188.735 534.739V539H187.712V534.517C187.712 534.145 187.592 533.845 187.35 533.618C187.109 533.388 186.798 533.273 186.417 533.273C186.155 533.273 185.911 533.342 185.684 533.482C185.459 533.621 185.278 533.814 185.138 534.061C185.002 534.305 184.934 534.588 184.934 534.909V539H183.928ZM197.102 539.136C196.472 539.136 195.928 538.997 195.47 538.719C195.016 538.438 194.665 538.045 194.418 537.543C194.173 537.037 194.051 536.449 194.051 535.778C194.051 535.108 194.173 534.517 194.418 534.006C194.665 533.491 195.008 533.091 195.449 532.804C195.892 532.514 196.409 532.369 197 532.369C197.341 532.369 197.678 532.426 198.01 532.54C198.342 532.653 198.645 532.838 198.918 533.094C199.19 533.347 199.408 533.682 199.57 534.099C199.731 534.517 199.812 535.031 199.812 535.642V536.068H194.767V535.199H198.79C198.79 534.83 198.716 534.5 198.568 534.21C198.423 533.92 198.216 533.692 197.946 533.524C197.679 533.357 197.364 533.273 197 533.273C196.599 533.273 196.253 533.372 195.96 533.571C195.67 533.767 195.447 534.023 195.291 534.338C195.135 534.653 195.057 534.991 195.057 535.352V535.932C195.057 536.426 195.142 536.845 195.312 537.189C195.486 537.53 195.726 537.79 196.033 537.969C196.339 538.145 196.696 538.233 197.102 538.233C197.366 538.233 197.605 538.196 197.818 538.122C198.034 538.045 198.22 537.932 198.376 537.781C198.533 537.628 198.653 537.437 198.739 537.21L199.71 537.483C199.608 537.812 199.436 538.102 199.195 538.352C198.953 538.599 198.655 538.793 198.3 538.932C197.945 539.068 197.545 539.136 197.102 539.136ZM201.342 539V532.455H202.314V533.443H202.382C202.501 533.119 202.717 532.857 203.03 532.655C203.342 532.453 203.695 532.352 204.087 532.352C204.16 532.352 204.253 532.354 204.364 532.357C204.474 532.359 204.558 532.364 204.615 532.369V533.392C204.581 533.384 204.503 533.371 204.381 533.354C204.261 533.334 204.135 533.324 204.001 533.324C203.683 533.324 203.399 533.391 203.149 533.524C202.902 533.655 202.706 533.837 202.561 534.07C202.419 534.3 202.348 534.562 202.348 534.858V539H201.342ZM208.267 539.136C207.676 539.136 207.158 538.996 206.712 538.714C206.268 538.433 205.922 538.04 205.672 537.534C205.425 537.028 205.301 536.437 205.301 535.761C205.301 535.08 205.425 534.484 205.672 533.976C205.922 533.467 206.268 533.072 206.712 532.791C207.158 532.51 207.676 532.369 208.267 532.369C208.858 532.369 209.375 532.51 209.818 532.791C210.264 533.072 210.611 533.467 210.858 533.976C211.108 534.484 211.233 535.08 211.233 535.761C211.233 536.437 211.108 537.028 210.858 537.534C210.611 538.04 210.264 538.433 209.818 538.714C209.375 538.996 208.858 539.136 208.267 539.136ZM208.267 538.233C208.716 538.233 209.085 538.118 209.375 537.888C209.665 537.658 209.879 537.355 210.018 536.98C210.158 536.605 210.227 536.199 210.227 535.761C210.227 535.324 210.158 534.916 210.018 534.538C209.879 534.161 209.665 533.855 209.375 533.622C209.085 533.389 208.716 533.273 208.267 533.273C207.818 533.273 207.449 533.389 207.159 533.622C206.869 533.855 206.655 534.161 206.516 534.538C206.376 534.916 206.307 535.324 206.307 535.761C206.307 536.199 206.376 536.605 206.516 536.98C206.655 537.355 206.869 537.658 207.159 537.888C207.449 538.118 207.818 538.233 208.267 538.233ZM218.615 539.136C218.069 539.136 217.588 538.999 217.17 538.723C216.752 538.445 216.426 538.053 216.19 537.547C215.954 537.038 215.836 536.438 215.836 535.744C215.836 535.057 215.954 534.46 216.19 533.955C216.426 533.449 216.754 533.058 217.174 532.783C217.595 532.507 218.081 532.369 218.632 532.369C219.058 532.369 219.394 532.44 219.642 532.582C219.892 532.722 220.082 532.881 220.213 533.06C220.346 533.236 220.45 533.381 220.524 533.494H220.609V530.273H221.615V539H220.643V537.994H220.524C220.45 538.114 220.345 538.264 220.208 538.446C220.072 538.625 219.877 538.786 219.625 538.928C219.372 539.067 219.035 539.136 218.615 539.136ZM218.751 538.233C219.154 538.233 219.495 538.128 219.774 537.918C220.052 537.705 220.264 537.411 220.409 537.036C220.554 536.658 220.626 536.222 220.626 535.727C220.626 535.239 220.555 534.811 220.413 534.445C220.271 534.075 220.061 533.788 219.782 533.584C219.504 533.376 219.16 533.273 218.751 533.273C218.325 533.273 217.97 533.382 217.686 533.601C217.404 533.817 217.193 534.111 217.051 534.483C216.912 534.852 216.842 535.267 216.842 535.727C216.842 536.193 216.913 536.616 217.055 536.997C217.2 537.375 217.413 537.676 217.694 537.901C217.978 538.122 218.331 538.233 218.751 538.233ZM225.522 539.153C225.108 539.153 224.731 539.075 224.393 538.919C224.055 538.76 223.787 538.531 223.588 538.233C223.389 537.932 223.289 537.568 223.289 537.142C223.289 536.767 223.363 536.463 223.511 536.23C223.659 535.994 223.856 535.81 224.103 535.676C224.35 535.543 224.623 535.443 224.921 535.378C225.223 535.31 225.525 535.256 225.829 535.216C226.227 535.165 226.549 535.126 226.797 535.101C227.047 535.072 227.228 535.026 227.342 534.96C227.458 534.895 227.517 534.781 227.517 534.619V534.585C227.517 534.165 227.402 533.838 227.172 533.605C226.944 533.372 226.599 533.256 226.136 533.256C225.656 533.256 225.279 533.361 225.007 533.571C224.734 533.781 224.542 534.006 224.431 534.244L223.477 533.903C223.647 533.506 223.875 533.196 224.159 532.974C224.446 532.75 224.758 532.594 225.096 532.506C225.437 532.415 225.772 532.369 226.102 532.369C226.312 532.369 226.554 532.395 226.826 532.446C227.102 532.494 227.368 532.595 227.623 532.749C227.882 532.902 228.096 533.134 228.267 533.443C228.437 533.753 228.522 534.168 228.522 534.688V539H227.517V538.114H227.466C227.397 538.256 227.284 538.408 227.125 538.57C226.966 538.732 226.754 538.869 226.49 538.983C226.225 539.097 225.903 539.153 225.522 539.153ZM225.676 538.25C226.074 538.25 226.409 538.172 226.681 538.016C226.957 537.859 227.164 537.658 227.304 537.411C227.446 537.163 227.517 536.903 227.517 536.631V535.71C227.474 535.761 227.38 535.808 227.235 535.851C227.093 535.891 226.929 535.926 226.741 535.957C226.556 535.986 226.376 536.011 226.2 536.034C226.027 536.054 225.886 536.071 225.778 536.085C225.517 536.119 225.272 536.175 225.045 536.251C224.821 536.325 224.639 536.437 224.5 536.588C224.363 536.736 224.295 536.937 224.295 537.193C224.295 537.543 224.424 537.807 224.683 537.986C224.944 538.162 225.275 538.25 225.676 538.25ZM238.369 533.92L237.466 534.176C237.409 534.026 237.325 533.879 237.214 533.737C237.107 533.592 236.959 533.473 236.771 533.379C236.584 533.286 236.344 533.239 236.051 533.239C235.651 533.239 235.317 533.331 235.05 533.516C234.786 533.697 234.653 533.929 234.653 534.21C234.653 534.46 234.744 534.658 234.926 534.803C235.108 534.947 235.392 535.068 235.778 535.165L236.75 535.403C237.335 535.545 237.771 535.763 238.058 536.055C238.345 536.345 238.489 536.719 238.489 537.176C238.489 537.551 238.381 537.886 238.165 538.182C237.952 538.477 237.653 538.71 237.27 538.881C236.886 539.051 236.44 539.136 235.932 539.136C235.264 539.136 234.712 538.991 234.274 538.702C233.837 538.412 233.56 537.989 233.443 537.432L234.398 537.193C234.489 537.545 234.661 537.81 234.913 537.986C235.169 538.162 235.503 538.25 235.915 538.25C236.384 538.25 236.756 538.151 237.031 537.952C237.31 537.75 237.449 537.509 237.449 537.227C237.449 537 237.369 536.81 237.21 536.656C237.051 536.5 236.807 536.384 236.477 536.307L235.386 536.051C234.787 535.909 234.347 535.689 234.065 535.391C233.787 535.089 233.648 534.713 233.648 534.261C233.648 533.892 233.751 533.565 233.959 533.281C234.169 532.997 234.455 532.774 234.815 532.612C235.179 532.45 235.591 532.369 236.051 532.369C236.699 532.369 237.207 532.511 237.577 532.795C237.949 533.08 238.213 533.455 238.369 533.92ZM242.662 539.136C242.071 539.136 241.552 538.996 241.106 538.714C240.663 538.433 240.316 538.04 240.066 537.534C239.819 537.028 239.696 536.437 239.696 535.761C239.696 535.08 239.819 534.484 240.066 533.976C240.316 533.467 240.663 533.072 241.106 532.791C241.552 532.51 242.071 532.369 242.662 532.369C243.252 532.369 243.77 532.51 244.213 532.791C244.659 533.072 245.005 533.467 245.252 533.976C245.502 534.484 245.627 535.08 245.627 535.761C245.627 536.437 245.502 537.028 245.252 537.534C245.005 538.04 244.659 538.433 244.213 538.714C243.77 538.996 243.252 539.136 242.662 539.136ZM242.662 538.233C243.11 538.233 243.48 538.118 243.77 537.888C244.059 537.658 244.274 537.355 244.413 536.98C244.552 536.605 244.622 536.199 244.622 535.761C244.622 535.324 244.552 534.916 244.413 534.538C244.274 534.161 244.059 533.855 243.77 533.622C243.48 533.389 243.11 533.273 242.662 533.273C242.213 533.273 241.843 533.389 241.554 533.622C241.264 533.855 241.049 534.161 240.91 534.538C240.771 534.916 240.701 535.324 240.701 535.761C240.701 536.199 240.771 536.605 240.91 536.98C241.049 537.355 241.264 537.658 241.554 537.888C241.843 538.118 242.213 538.233 242.662 538.233ZM247.163 539V532.455H248.134V533.443H248.202C248.322 533.119 248.538 532.857 248.85 532.655C249.163 532.453 249.515 532.352 249.907 532.352C249.981 532.352 250.073 532.354 250.184 532.357C250.295 532.359 250.379 532.364 250.435 532.369V533.392C250.401 533.384 250.323 533.371 250.201 533.354C250.082 533.334 249.955 533.324 249.822 533.324C249.504 533.324 249.219 533.391 248.969 533.524C248.722 533.655 248.526 533.837 248.381 534.07C248.239 534.3 248.168 534.562 248.168 534.858V539H247.163ZM254.884 532.455V533.307H251.492V532.455H254.884ZM252.481 530.886H253.487V537.125C253.487 537.409 253.528 537.622 253.61 537.764C253.695 537.903 253.803 537.997 253.934 538.045C254.067 538.091 254.208 538.114 254.356 538.114C254.467 538.114 254.558 538.108 254.629 538.097C254.7 538.082 254.756 538.071 254.799 538.062L255.004 538.966C254.935 538.991 254.84 539.017 254.718 539.043C254.596 539.071 254.441 539.085 254.254 539.085C253.969 539.085 253.691 539.024 253.418 538.902C253.148 538.78 252.924 538.594 252.745 538.344C252.569 538.094 252.481 537.778 252.481 537.398V530.886ZM259.071 539.136C258.44 539.136 257.896 538.997 257.439 538.719C256.984 538.438 256.634 538.045 256.386 537.543C256.142 537.037 256.02 536.449 256.02 535.778C256.02 535.108 256.142 534.517 256.386 534.006C256.634 533.491 256.977 533.091 257.418 532.804C257.861 532.514 258.378 532.369 258.969 532.369C259.31 532.369 259.646 532.426 259.979 532.54C260.311 532.653 260.614 532.838 260.886 533.094C261.159 533.347 261.376 533.682 261.538 534.099C261.7 534.517 261.781 535.031 261.781 535.642V536.068H256.736V535.199H260.759C260.759 534.83 260.685 534.5 260.537 534.21C260.392 533.92 260.185 533.692 259.915 533.524C259.648 533.357 259.332 533.273 258.969 533.273C258.568 533.273 258.222 533.372 257.929 533.571C257.639 533.767 257.416 534.023 257.26 534.338C257.104 534.653 257.026 534.991 257.026 535.352V535.932C257.026 536.426 257.111 536.845 257.281 537.189C257.455 537.53 257.695 537.79 258.001 537.969C258.308 538.145 258.665 538.233 259.071 538.233C259.335 538.233 259.574 538.196 259.787 538.122C260.003 538.045 260.189 537.932 260.345 537.781C260.501 537.628 260.622 537.437 260.707 537.21L261.679 537.483C261.577 537.812 261.405 538.102 261.163 538.352C260.922 538.599 260.624 538.793 260.268 538.932C259.913 539.068 259.514 539.136 259.071 539.136Z" fill="white"/>
<path fill-rule="evenodd" clip-rule="evenodd" d="M237.777 430.036C226.257 427.809 217.457 425.689 215.524 425.209L215.511 425.062L215.497 425.022C217.524 424.596 227.471 422.702 238.257 423.689C257.724 425.476 255.471 399.236 239.964 403.796C245.604 389.009 223.791 383.076 220.044 402.449C217.804 414.049 215.657 422.876 215.204 424.729C215.164 424.716 215.124 424.716 215.084 424.716L215.031 424.729C214.617 422.716 212.711 412.769 213.697 401.969C215.484 382.502 189.244 384.756 193.804 400.262C179.004 394.622 173.084 416.422 192.457 420.169C204.044 422.422 212.871 424.556 214.737 425.009C214.724 425.049 214.711 425.103 214.724 425.143V425.196C212.671 425.623 202.737 427.516 191.964 426.529C172.511 424.743 174.751 450.982 190.257 446.422C184.617 461.209 206.431 467.129 210.177 447.756C212.164 437.556 214.057 429.489 214.791 426.436C215.097 432.449 214.484 438.476 213.244 444.342C211.924 450.649 209.937 456.809 207.857 462.942C205.684 469.036 203.684 475.423 202.857 482.009C201.964 488.596 202.111 495.382 203.404 501.969V501.982L203.417 502.049C203.657 503.076 204.684 503.716 205.711 503.476C206.751 503.223 207.391 502.196 207.151 501.169C205.711 495.036 205.311 488.676 205.924 482.369C206.217 479.209 206.751 476.062 207.484 472.956C208.204 469.836 209.151 466.782 210.084 463.649C211.937 457.409 213.697 451.103 214.777 444.636C215.657 439.463 216.057 434.196 215.817 428.956C216.457 433.222 217.231 440.516 216.524 448.249C214.737 467.702 240.991 465.463 236.431 449.956C251.217 455.596 257.151 433.783 237.777 430.036Z" fill="white"/>
</svg>
